# xmcd
# 
# Track frame offsets:
#     150
#     5783
#     14071
#     32236
#     51264
#     69302
#     96827
#     115607
#     135460
#     159490
#     174250
#     212133
# 
# Disc length: 3111
# 
# Revision: 3
# Processed by: cddbd v1.5.2PL0 Copyright (c) Steve Scherf et al.
# Submitted via: fre:ac v1.1beta1pre5
# 
DISCID=9f0c250c
DTITLE=Carcass - Surgical Steel
DYEAR=2013
DGENRE=Melodic Death Metal
TTITLE0=1985
TTITLE1=Thrasher's Abbatoir
TTITLE2=Cadaver Pouch Conveyor System
TTITLE3=A Congealed Clot of Blood
TTITLE4=The Master Butcher's Apron
TTITLE5=Noncompliance to ASTM F 899-12 Standard
TTITLE6=The Granulating Dark Satanic Mills
TTITLE7=Unfit for Human Consumption
TTITLE8=316L Grade Surgical Steel
TTITLE9=Captive Bolt Pistol
TTITLE10=Mount of Execution
TTITLE11=Intensive Battery Brooding
EXTD=
EXTT0=
EXTT1=
EXTT2=
EXTT3=
EXTT4=
EXTT5=
EXTT6=
EXTT7=
EXTT8=
EXTT9=
EXTT10=
EXTT11=
PLAYORDER=
